<svg width="180" height="180" viewBox="0 0 180 180" fill="none" xmlns="http://www.w3.org/2000/svg">
  <title>turtle bot mascot</title>
  <!-- Shadow -->
  <ellipse cx="92" cy="150" rx="56" ry="14" fill="rgba(0,0,0,0.35)"/>

  <!-- Left arm -->
  <path d="M38 92C23 92 12 105 12 118C12 128 19 135 30 135H44"
        fill="#22C55E" stroke="#0B0B10" stroke-width="5" stroke-linecap="round" stroke-linejoin="round"/>
  <path d="M18 119C24 114 30 113 38 114" stroke="#86EFAC" stroke-width="3" stroke-linecap="round" opacity="0.85"/>

  <!-- Right arm -->
  <path d="M146 92C161 92 172 105 172 118C172 128 165 135 154 135H140"
        fill="#22C55E" stroke="#0B0B10" stroke-width="5" stroke-linecap="round" stroke-linejoin="round"/>
  <path d="M162 119C156 114 150 113 142 114" stroke="#86EFAC" stroke-width="3" stroke-linecap="round" opacity="0.85"/>

  <!-- Shell outer -->
  <path d="M90 34C58 34 36 60 36 91C36 131 61 154 90 154C119 154 144 131 144 91C144 60 122 34 90 34Z"
        fill="#22C55E" stroke="#0B0B10" stroke-width="6" stroke-linejoin="round"/>

  <!-- Shell inner -->
  <path d="M90 45C66 45 50 65 50 90C50 123 70 140 90 140C110 140 130 123 130 90C130 65 114 45 90 45Z"
        fill="#16A34A" opacity="0.75"/>

  <!-- Shell highlights -->
  <path d="M90 52V140" stroke="#86EFAC" stroke-width="4" stroke-linecap="round" opacity="0.8"/>
  <path d="M65 62L115 118" stroke="#86EFAC" stroke-width="4" stroke-linecap="round" opacity="0.65"/>
  <path d="M115 62L65 118" stroke="#86EFAC" stroke-width="4" stroke-linecap="round" opacity="0.65"/>

  <!-- Head -->
  <path d="M90 12C78 12 70 22 70 33C70 46 80 54 90 54C100 54 110 46 110 33C110 22 102 12 90 12Z"
        fill="#22C55E" stroke="#0B0B10" stroke-width="6" stroke-linejoin="round"/>

  <!-- Face -->
  <circle cx="82" cy="33" r="3" fill="#0B0B10"/>
  <circle cx="98" cy="33" r="3" fill="#0B0B10"/>
  <path d="M84 40C87.5 44 92.5 44 96 40" stroke="#0B0B10" stroke-width="5" stroke-linecap="round"/>
  <path d="M76 24C79 22 82 21 86 21" stroke="#0B0B10" stroke-width="4" stroke-linecap="round" opacity="0.6"/>
  <path d="M104 24C101 22 98 21 94 21" stroke="#0B0B10" stroke-width="4" stroke-linecap="round" opacity="0.6"/>

  <!-- Left leg -->
  <path d="M62 144C52 144 44 152 44 162C44 169 49 174 57 174H74"
        fill="#22C55E" stroke="#0B0B10" stroke-width="6" stroke-linecap="round" stroke-linejoin="round"/>
  <path d="M52 162C58 158 64 157 70 158" stroke="#86EFAC" stroke-width="3" stroke-linecap="round" opacity="0.85"/>

  <!-- Right leg -->
  <path d="M118 144C128 144 136 152 136 162C136 169 131 174 123 174H106"
        fill="#22C55E" stroke="#0B0B10" stroke-width="6" stroke-linecap="round" stroke-linejoin="round"/>
  <path d="M128 162C122 158 116 157 110 158" stroke="#86EFAC" stroke-width="3" stroke-linecap="round" opacity="0.85"/>

  <!-- Tail -->
  <path d="M90 156L82 170H98L90 156Z" fill="#065F46" stroke="#0B0B10" stroke-width="5" stroke-linejoin="round"/>
</svg>
