<svg width="64" height="64" viewBox="0 0 64 64" fill="none" xmlns="http://www.w3.org/2000/svg">
  <title>turtle bot</title>
  <path d="M32 14C22.4 14 16 22.1 16 31.3C16 43.2 23.2 50 32 50C40.8 50 48 43.2 48 31.3C48 22.1 41.6 14 32 14Z"
        fill="#22C55E" stroke="#0B0B10" stroke-width="3" stroke-linejoin="round"/>
  <path d="M32 18C26 18 22 23.4 22 30.2C22 39 26.8 44 32 44C37.2 44 42 39 42 30.2C42 23.4 38 18 32 18Z"
        fill="#16A34A" opacity="0.65"/>
  <path d="M32 20V44M24 24L40 40M40 24L24 40"
        stroke="#86EFAC" stroke-width="2" stroke-linecap="round" opacity="0.9"/>
  <path d="M32 8C27.8 8 25 11.5 25 15.1C25 19.4 28.4 22 32 22C35.6 22 39 19.4 39 15.1C39 11.5 36.2 8 32 8Z"
        fill="#22C55E" stroke="#0B0B10" stroke-width="3" stroke-linejoin="round"/>
  <circle cx="29.5" cy="14.5" r="1.3" fill="#0B0B10"/>
  <circle cx="34.5" cy="14.5" r="1.3" fill="#0B0B10"/>
  <path d="M30.5 17.3C31.6 18.4 32.4 18.4 33.5 17.3"
        stroke="#0B0B10" stroke-width="2" stroke-linecap="round"/>
  <path d="M16 29C11.6 29 8 32.9 8 37.4C8 41.4 11 44 14.2 44H16.2"
        fill="#22C55E" stroke="#0B0B10" stroke-width="3" stroke-linecap="round" stroke-linejoin="round"/>
  <path d="M48 29C52.4 29 56 32.9 56 37.4C56 41.4 53 44 49.8 44H47.8"
        fill="#22C55E" stroke="#0B0B10" stroke-width="3" stroke-linecap="round" stroke-linejoin="round"/>
  <path d="M22 48C18.2 48 15 51.2 15 55C15 58 17.2 60 20.1 60H25"
        fill="#22C55E" stroke="#0B0B10" stroke-width="3" stroke-linecap="round" stroke-linejoin="round"/>
  <path d="M42 48C45.8 48 49 51.2 49 55C49 58 46.8 60 43.9 60H39"
        fill="#22C55E" stroke="#0B0B10" stroke-width="3" stroke-linecap="round" stroke-linejoin="round"/>
</svg>
